<?xml version="1.0" standalone="no"?>
<!DOCTYPE svg PUBLIC "-//W3C//DTD SVG 20010904//EN"
 "http://www.w3.org/TR/2001/REC-SVG-20010904/DTD/svg10.dtd">
<svg version="1.0" xmlns="http://www.w3.org/2000/svg"
 width="771.000000pt" height="780.000000pt" viewBox="0 0 771.000000 780.000000"
 preserveAspectRatio="xMidYMid meet">
<metadata>
Created by potrace 1.16, written by Peter Selinger 2001-2019
</metadata>
<g transform="translate(0.000000,780.000000) scale(0.100000,-0.100000)"
fill="#000000" stroke="none">
<path d="M3738 7663 c-16 -2 -28 -10 -28 -16 0 -8 -3 -8 -9 1 -6 10 -26 11
-87 6 -143 -14 -31 -23 304 -25 172 -1 308 -5 302 -9 -7 -4 21 -10 61 -14 40
-4 108 -14 152 -22 79 -13 97 -12 97 8 0 6 -14 8 -34 6 -19 -2 -32 0 -29 4 2
5 -10 8 -29 8 -18 -1 -55 4 -83 10 -27 7 -96 12 -152 13 -55 1 -97 5 -91 8 15
9 -55 20 -115 18 -28 -1 -73 2 -98 6 -30 4 -49 3 -53 -4 -5 -7 -15 -7 -32 -1
-14 6 -31 9 -37 9 -7 -1 -24 -4 -39 -6z"/>
<path d="M3053 7577 c-23 -7 -45 -15 -49 -19 -4 -4 -18 -5 -32 -1 -16 4 -23 2
-18 -5 4 -6 -2 -8 -14 -5 -12 3 -29 -2 -39 -11 -13 -12 -20 -13 -23 -6 -2 8
-16 5 -42 -10 -21 -11 -45 -19 -52 -16 -18 7 -76 -18 -67 -29 5 -4 2 -5 -5 -1
-7 4 -19 2 -27 -4 -8 -7 -22 -10 -30 -6 -18 7 -47 -3 -40 -14 3 -4 -1 -8 -8
-7 -32 1 -48 -4 -42 -13 3 -5 0 -7 -8 -4 -8 3 -18 1 -22 -5 -3 -6 -17 -11 -31
-11 -17 0 -23 -4 -18 -12 5 -8 2 -9 -9 -5 -21 8 -49 -2 -41 -14 3 -5 -1 -6 -9
-3 -8 3 -19 -2 -26 -10 -7 -8 -20 -12 -28 -9 -12 5 -14 3 -8 -6 5 -10 2 -11
-12 -7 -12 4 -37 -6 -72 -29 -29 -19 -56 -33 -60 -30 -5 2 -17 -2 -27 -10 -10
-8 -27 -15 -37 -15 -10 0 -20 -7 -23 -15 -4 -8 -10 -13 -14 -10 -5 3 -15 -2
-23 -10 -9 -8 -22 -15 -31 -15 -8 0 -21 -8 -28 -17 -12 -17 -21 -21 -58 -28
-8 -1 -14 -8 -13 -14 2 -6 -4 -11 -12 -11 -8 0 -15 -5 -15 -12 0 -6 -3 -8 -7
-5 -3 4 -12 2 -20 -4 -7 -6 -13 -8 -13 -4 0 4 -18 -7 -39 -24 -21 -17 -44 -31
-50 -31 -6 0 -11 -7 -11 -15 0 -8 -5 -15 -11 -15 -5 0 -7 6 -3 13 4 6 -1 4
-12 -6 -25 -24 -101 -79 -130 -95 -13 -7 -24 -18 -24 -23 0 -6 -4 -8 -9 -5 -5
4 -20 -7 -34 -23 -14 -17 -27 -28 -29 -25 -3 2 -21 -12 -41 -31 -21 -20 -37
-33 -37 -30 0 3 -11 -5 -23 -19 -13 -14 -26 -23 -29 -20 -3 2 -17 -9 -32 -26
-14 -17 -26 -28 -26 -24 0 4 -11 -6 -23 -24 -13 -17 -26 -29 -29 -27 -3 3 -11
-2 -19 -12 -12 -14 -12 -16 0 -8 10 5 12 4 7 -3 -4 -7 -14 -12 -22 -12 -8 0
-23 -15 -34 -32 -11 -18 -20 -29 -20 -24 0 4 -19 -11 -43 -34 -23 -24 -41 -47
-39 -52 1 -6 -7 -12 -18 -15 -11 -3 -20 -8 -20 -12 0 -4 -13 -21 -29 -38 -15
-17 -31 -39 -34 -48 -4 -9 -11 -14 -15 -11 -5 3 -14 -6 -20 -19 -7 -14 -16
-25 -22 -25 -5 0 -10 -7 -10 -15 0 -9 -7 -18 -15 -21 -8 -3 -28 -27 -45 -54
-17 -27 -38 -51 -46 -54 -8 -3 -13 -10 -10 -15 3 -4 -10 -24 -29 -44 -19 -20
-35 -42 -35 -50 0 -7 -13 -26 -30 -42 -16 -15 -27 -31 -25 -35 2 -3 -4 -12
-15 -20 -10 -7 -16 -19 -14 -25 3 -7 -2 -15 -11 -19 -9 -3 -14 -10 -11 -15 3
-5 -1 -12 -10 -15 -9 -4 -14 -9 -11 -13 6 -6 -24 -54 -50 -81 -7 -7 -13 -21
-13 -30 0 -9 -14 -33 -30 -52 -17 -19 -28 -40 -26 -47 3 -6 -4 -23 -15 -38
-12 -14 -22 -31 -23 -38 -3 -25 -29 -77 -37 -77 -5 0 -14 -20 -20 -45 -6 -25
-16 -45 -21 -45 -5 0 -7 -4 -3 -9 3 -5 1 -12 -5 -16 -5 -3 -14 -24 -20 -45 -6
-22 -16 -40 -22 -40 -5 0 -8 -9 -5 -20 3 -11 2 -18 -3 -15 -11 7 -21 -21 -14
-39 3 -8 1 -17 -5 -21 -6 -3 -11 -13 -11 -22 0 -8 -9 -27 -21 -41 -13 -17 -18
-34 -15 -48 6 -23 -11 -73 -27 -85 -5 -4 -9 -23 -9 -44 0 -22 -3 -33 -8 -25
-4 7 -8 -5 -8 -30 -1 -23 -10 -60 -22 -82 -12 -23 -19 -50 -17 -60 3 -10 1
-15 -5 -12 -6 4 -8 -2 -3 -16 4 -13 3 -20 -2 -17 -5 3 -9 -18 -9 -47 0 -30 -8
-68 -19 -91 -12 -26 -19 -62 -19 -104 0 -35 -2 -57 -5 -48 -3 9 -7 -31 -7 -89
-2 -82 -6 -109 -18 -123 -19 -21 -21 -79 -18 -404 2 -158 6 -203 18 -222 11
-16 16 -53 17 -124 1 -55 5 -93 8 -84 3 9 6 -13 6 -49 1 -41 8 -79 19 -99 9
-19 17 -57 18 -86 0 -29 4 -53 8 -53 5 0 5 -12 2 -26 -5 -21 -4 -25 6 -19 9 5
11 4 6 -3 -4 -6 2 -33 14 -59 11 -26 22 -66 24 -88 5 -51 16 -95 25 -95 12 0
32 -67 24 -85 -4 -13 -3 -16 5 -11 8 5 10 2 6 -9 -4 -9 0 -23 8 -33 20 -24 39
-72 33 -82 -8 -12 6 -41 16 -34 5 3 6 -2 3 -10 -3 -9 -2 -16 4 -16 5 0 15 -20
21 -44 6 -25 16 -48 21 -51 6 -4 8 -11 5 -16 -4 -5 -2 -9 4 -9 6 0 15 -18 21
-41 6 -22 20 -49 31 -60 11 -11 18 -27 15 -34 -3 -8 8 -33 24 -56 16 -24 26
-47 24 -51 -3 -4 0 -8 6 -8 6 0 9 -4 6 -9 -3 -5 6 -21 19 -35 14 -15 25 -36
25 -47 0 -11 5 -17 10 -14 6 3 10 1 10 -5 0 -7 9 -23 20 -37 11 -14 20 -34 20
-45 0 -10 7 -21 15 -24 8 -4 13 -10 10 -14 -3 -4 2 -11 11 -14 8 -3 12 -11 9
-16 -8 -13 14 -42 26 -34 5 3 9 -2 9 -11 0 -9 11 -26 25 -39 14 -13 25 -30 25
-39 0 -9 12 -28 27 -42 16 -14 28 -29 28 -33 0 -9 45 -67 88 -112 15 -16 27
-34 27 -39 0 -5 8 -16 19 -23 18 -13 21 -18 21 -37 0 -6 12 -16 27 -23 16 -7
28 -18 27 -23 0 -14 19 -34 28 -28 5 2 8 -3 8 -11 0 -8 14 -24 30 -36 17 -12
30 -28 30 -36 0 -8 6 -14 14 -14 8 0 18 -9 21 -21 4 -11 9 -18 12 -16 7 7 43
-31 43 -45 0 -6 2 -9 6 -6 5 6 90 -69 167 -147 22 -22 43 -39 47 -38 4 1 18
-9 30 -22 13 -14 30 -25 37 -25 8 0 11 -4 8 -10 -3 -5 1 -10 9 -10 9 0 21 -9
28 -20 7 -11 16 -20 20 -20 7 0 84 -54 118 -82 9 -7 29 -20 45 -28 17 -8 43
-27 58 -43 16 -15 39 -30 53 -33 13 -3 21 -11 17 -17 -3 -5 -1 -7 4 -4 6 4 16
0 23 -8 7 -8 16 -12 21 -9 5 3 9 2 9 -3 0 -4 20 -17 44 -27 25 -11 43 -24 40
-28 -3 -4 -2 -8 3 -9 29 -2 47 -9 53 -19 4 -7 9 -11 11 -9 10 5 49 -13 44 -22
-3 -5 2 -6 11 -2 11 4 15 2 11 -4 -4 -6 4 -11 19 -11 13 0 33 -7 43 -16 9 -9
24 -16 32 -16 12 0 11 -2 -1 -11 -12 -8 -10 -9 8 -4 12 3 22 3 22 -2 0 -4 9
-14 21 -21 12 -8 18 -9 14 -3 -11 19 14 12 32 -8 9 -11 20 -18 25 -15 4 3 22
-5 40 -17 17 -13 28 -18 24 -11 -11 17 10 15 28 -4 9 -8 16 -13 16 -10 0 3 30
-11 66 -30 37 -20 70 -31 73 -26 3 5 30 -2 63 -18 36 -18 66 -26 83 -22 16 3
30 0 35 -8 5 -7 23 -13 41 -12 24 1 29 -2 19 -8 -8 -6 -10 -10 -5 -10 6 0 32
-7 58 -15 26 -8 45 -10 42 -5 -4 6 3 10 15 10 11 0 23 -7 27 -16 4 -11 13 -14
30 -9 34 8 154 -16 127 -26 -20 -8 -21 -8 66 -15 14 -1 27 -3 30 -4 3 -1 52
-3 109 -4 58 -2 106 -7 108 -12 2 -5 51 -9 110 -8 l108 1 -95 -6 -95 -6 145
-7 c80 -5 190 -7 245 -6 96 1 98 2 35 8 -41 4 -8 6 90 5 123 -2 137 -1 70 5
l-85 7 103 -1 c56 -1 103 3 105 8 3 8 131 16 240 16 15 0 27 4 27 10 0 5 14 7
33 5 23 -4 27 -3 12 3 -17 8 -15 10 16 16 19 3 51 4 70 1 30 -4 31 -4 9 5 -22
9 -20 9 12 6 25 -3 41 0 49 10 9 11 23 14 46 9 20 -3 33 -2 33 4 0 6 7 7 17 4
11 -5 14 -3 8 6 -6 10 -2 11 15 6 17 -5 21 -4 15 6 -6 9 -3 11 9 6 10 -4 27
-2 39 5 29 15 88 28 81 17 -3 -5 2 -6 10 -3 9 3 13 10 10 15 -3 5 2 6 10 3 8
-3 26 2 40 11 14 10 32 15 40 12 8 -3 17 1 20 9 4 11 13 13 28 9 18 -5 20 -4
8 4 -12 8 -8 11 17 11 17 0 35 5 38 10 4 6 11 7 17 4 6 -4 17 1 24 11 7 10 27
19 44 21 16 2 41 10 53 19 13 8 27 12 32 8 4 -5 5 -3 1 4 -4 8 3 15 21 19 15
3 35 8 43 11 8 4 21 5 29 4 7 -1 10 2 6 8 -3 6 0 11 8 11 8 0 17 7 21 15 3 8
10 15 16 15 6 0 8 -6 4 -12 -4 -7 2 -5 14 5 12 11 26 16 33 11 7 -4 10 -3 6 3
-3 5 7 17 24 27 16 9 29 14 29 11 0 -4 7 1 16 9 8 9 20 14 25 11 5 -4 9 -1 9
4 0 9 61 43 83 45 4 1 12 8 17 16 5 8 10 11 10 6 0 -5 9 -1 20 9 11 10 20 14
20 10 0 -5 6 0 14 11 8 10 18 19 23 19 16 1 62 30 62 39 0 6 8 11 18 12 10 2
19 8 21 14 2 5 8 8 12 5 5 -3 14 4 20 15 6 11 17 20 25 20 8 0 15 5 15 11 0 5
4 8 9 5 4 -3 19 6 31 19 13 14 30 25 37 25 8 0 12 4 8 9 -3 5 4 12 15 16 11 3
20 11 20 16 0 5 6 9 13 9 7 0 26 14 42 30 16 17 34 30 41 30 6 0 24 16 40 35
15 19 42 45 60 57 18 12 30 26 28 30 -3 4 0 8 6 8 7 0 45 34 85 75 41 41 79
75 84 75 6 0 11 5 11 10 0 6 20 32 46 58 88 92 110 117 117 135 3 9 11 17 17
17 6 0 8 5 5 11 -4 6 2 13 14 16 11 3 18 9 15 14 -3 5 -1 9 5 9 6 0 18 14 27
31 9 17 28 43 42 56 15 14 20 21 12 18 -8 -4 2 9 23 30 20 20 37 40 37 45 0 5
11 21 25 36 14 15 25 36 25 46 0 11 5 16 10 13 6 -4 15 7 21 24 6 17 15 31 21
31 5 0 6 4 3 10 -3 5 -1 10 4 10 6 0 10 3 9 8 -3 12 32 72 42 72 6 0 10 9 10
21 0 13 4 18 13 13 6 -4 9 -4 5 1 -9 10 19 65 33 65 6 0 8 7 5 16 -3 8 -2 13
3 10 5 -3 12 1 15 10 4 10 2 13 -7 8 -13 -8 2 14 35 52 10 11 20 34 21 51 2
16 14 40 26 52 11 11 21 32 21 45 0 14 7 32 16 40 8 9 13 16 9 16 -3 0 1 10
10 23 8 13 12 27 8 30 -3 4 -1 7 5 7 7 0 11 3 11 7 -4 25 2 53 10 48 10 -5 27
41 38 100 3 17 10 33 16 37 7 4 8 8 3 8 -6 0 -1 6 9 14 12 8 16 19 11 31 -7
20 13 85 32 100 6 6 14 35 16 67 3 31 9 65 15 75 25 46 41 106 35 130 -4 14
-3 24 2 21 5 -3 10 17 11 45 1 27 6 53 10 56 13 9 32 121 27 156 -3 20 -2 24
3 13 5 -9 9 29 9 85 1 63 7 119 17 147 23 68 23 511 0 578 -11 31 -17 83 -17
151 -1 63 -4 93 -8 75 -5 -22 -6 -18 -4 16 4 52 -11 139 -27 158 -6 8 -11 38
-11 67 -1 29 -4 49 -7 43 -4 -5 -9 2 -13 17 -4 15 -5 30 -1 33 3 3 5 -3 5 -13
0 -10 3 -16 6 -12 7 6 -24 103 -39 124 -5 7 -10 34 -11 60 -2 29 -14 68 -30
98 -16 30 -25 58 -22 71 4 13 -2 30 -14 43 -10 13 -22 37 -25 54 -15 73 -26
107 -34 102 -7 -4 -13 11 -27 74 -1 8 -8 18 -16 22 -7 4 -9 11 -6 15 4 3 1 13
-7 21 -8 8 -15 25 -15 39 0 13 -9 33 -19 43 -17 17 -31 47 -37 76 -1 6 -13 28
-28 49 -14 21 -23 43 -19 50 3 6 3 8 -2 4 -9 -8 -45 54 -45 78 0 8 -4 12 -10
9 -6 -3 -7 1 -4 9 3 9 1 16 -5 16 -6 0 -19 16 -28 35 -9 19 -21 35 -25 35 -5
0 -6 5 -3 10 3 6 2 10 -3 10 -6 0 -13 11 -16 25 -3 13 -16 34 -29 45 -12 12
-22 25 -22 30 0 5 -10 20 -21 33 -12 14 -25 34 -29 46 -3 12 -17 29 -30 37
-13 9 -22 21 -19 28 3 7 -14 27 -36 45 -22 18 -38 36 -36 40 3 4 -15 30 -39
57 -25 27 -45 55 -45 62 0 6 -7 12 -15 12 -8 0 -15 6 -15 13 0 6 -16 27 -35
46 -19 19 -35 37 -35 42 0 4 -9 11 -20 14 -11 3 -20 13 -20 21 0 8 -11 20 -25
26 -14 6 -25 17 -25 25 0 7 -11 18 -25 23 -14 5 -25 15 -25 23 0 7 -13 21 -30
30 -16 10 -30 22 -30 27 0 12 -108 114 -124 116 -7 1 -35 23 -61 48 -27 25
-52 46 -55 46 -7 0 -41 28 -81 65 -9 8 -20 15 -26 15 -5 0 -20 11 -33 25 -13
14 -29 25 -37 25 -7 0 -13 4 -13 9 0 5 -18 16 -39 24 -22 9 -42 21 -45 26 -11
16 -91 77 -81 61 6 -11 3 -10 -12 3 -11 9 -23 14 -26 10 -4 -3 -7 -1 -7 5 0 7
-7 12 -16 12 -8 0 -12 5 -9 10 3 6 1 11 -4 11 -12 2 -26 5 -38 9 -5 1 -11 2
-15 1 -4 0 -12 8 -18 19 -6 11 -19 20 -30 20 -10 0 -22 5 -25 10 -9 15 -127
70 -137 64 -4 -3 -8 0 -8 5 0 14 -69 45 -95 42 -17 -2 -18 0 -5 9 12 9 11 10
-7 5 -15 -4 -34 3 -64 24 -23 17 -57 33 -76 37 -19 4 -51 14 -71 24 -20 10
-43 15 -51 12 -8 -3 -12 -1 -8 5 8 13 -17 25 -37 17 -8 -3 -30 2 -48 12 -18 9
-41 21 -51 26 -9 4 -28 6 -42 2 -15 -4 -25 -2 -25 5 0 6 -8 11 -18 11 -11 0
-33 7 -50 16 -18 8 -51 17 -74 19 -24 2 -63 10 -87 19 -49 18 -74 21 -51 6 12
-8 10 -10 -10 -11 -16 -1 -8 -5 20 -11 580 -122 1116 -377 1584 -752 56 -45
171 -150 257 -233 86 -84 160 -149 164 -145 5 4 5 1 1 -6 -5 -8 7 -29 31 -55
124 -134 309 -393 420 -587 253 -440 401 -890 469 -1425 25 -196 25 -632 1
-835 -104 -849 -468 -1602 -1062 -2195 -593 -594 -1346 -958 -2195 -1062 -203
-24 -639 -24 -835 1 -729 93 -1339 348 -1895 790 -150 120 -445 412 -556 552
-444 556 -698 1151 -801 1874 -25 182 -26 719 0 910 62 460 191 873 393 1258
35 68 61 128 58 134 -4 6 -3 8 4 5 5 -4 22 14 38 40 52 90 181 278 262 382
179 230 399 451 627 631 50 39 89 75 87 81 -1 6 2 8 7 5 5 -3 64 32 132 78
359 242 728 407 1157 517 84 21 163 40 175 40 19 1 19 2 3 6 -15 4 -16 7 -5
14 18 11 5 10 -48 -4z"/>
<path d="M3620 7384 c-860 -62 -1627 -409 -2226 -1008 -555 -555 -891 -1247
-990 -2041 -25 -193 -25 -596 -1 -790 70 -569 259 -1078 569 -1537 509 -752
1289 -1274 2173 -1453 66 -13 172 -32 235 -40 154 -22 591 -31 757 -16 792 72
1522 405 2091 955 602 582 967 1344 1042 2174 16 172 8 605 -15 762 -139 994
-671 1852 -1493 2408 -458 310 -967 499 -1532 568 -122 15 -499 26 -610 18z
m390 -134 c470 -27 877 -134 1285 -335 343 -170 618 -367 885 -635 887 -887
1195 -2184 804 -3382 -265 -813 -852 -1503 -1619 -1904 -935 -489 -2060 -500
-3005 -29 -662 330 -1176 845 -1505 1510 -355 720 -435 1542 -225 2330 235
884 864 1663 1677 2078 488 248 886 348 1498 375 17 1 109 -3 205 -8z"/>
<path d="M2275 5099 c-76 -16 -203 -80 -271 -137 -79 -65 -155 -179 -191 -285
l-28 -82 0 -892 0 -892 22 -22 22 -22 1999 -5 2000 -5 26 26 c33 33 33 71 1
102 l-24 25 -605 0 c-410 0 -622 4 -658 11 -79 17 -164 64 -230 127 -100 95
-148 205 -148 337 0 196 116 359 313 443 l62 26 395 7 c437 7 450 9 584 76 99
50 218 171 268 273 89 181 88 374 -1 555 -71 145 -203 260 -361 317 l-65 23
-1005 0 -1005 0 -67 -26 c-37 -15 -93 -42 -124 -60 -66 -40 -172 -143 -199
-193 -11 -20 -22 -36 -25 -36 -3 0 -14 16 -24 34 -27 50 -135 156 -200 195
-101 61 -178 83 -301 87 -60 2 -132 -2 -160 -7z m276 -159 c127 -39 226 -125
287 -249 l37 -75 5 -589 5 -589 28 -24 28 -24 548 0 548 0 7 -65 c14 -134 75
-268 167 -366 l45 -49 -1163 0 -1163 0 0 810 c0 552 4 826 11 862 35 169 165
310 334 364 63 20 203 17 276 -6z m1162 -22 c90 -43 176 -123 219 -204 56
-105 58 -123 58 -671 l0 -503 -481 0 -480 0 4 513 c4 555 4 559 62 665 33 60
114 144 173 179 81 48 147 63 262 60 98 -2 110 -5 183 -39z m1727 6 c91 -43
165 -105 211 -177 183 -283 35 -635 -306 -722 -47 -12 -128 -15 -400 -15 -375
0 -428 -6 -543 -60 -88 -41 -154 -92 -213 -162 l-49 -59 0 393 c0 224 -5 421
-11 457 -20 126 -70 232 -157 332 l-44 50 724 -3 723 -3 65 -31z"/>
</g>
</svg>
